<svg preserveAspectRatio="none" width="100%" height="100%" overflow="visible" style="display: block;" viewBox="0 0 184.982 200.181" fill="none" xmlns="http://www.w3.org/2000/svg">
<g id="Group 2">
<path id="Vector" d="M42.3969 45.7871C40.834 54.296 49.1456 59.1632 49.0175 60.8221C48.6187 60.9353 47.7716 60.4901 47.416 60.2693C44.5609 58.496 42.207 55.1906 41.2802 51.9928C40.2378 48.3965 40.3838 44.6783 42.1965 41.3882C44.1295 37.8797 47.8368 35.5934 49.1617 31.5749C49.9316 29.2393 50.1067 27.2857 50.2253 24.8819C50.4911 17.8143 50.768 10.9389 56.2091 5.70139C58.7164 3.28792 60.6973 1.76705 64.1626 0.835518C70.1612 -0.777119 76.5883 -0.229664 81.3416 4.01927C81.7702 3.0284 82.5492 2.19289 83.5955 1.90353C91.0624 -0.149333 97.8178 3.62587 100.29 10.9249C102.425 17.2285 101.161 23.1377 99.0045 29.2021C97.5054 33.4202 95.9498 37.3678 97.5997 41.8219C97.7871 42.3275 97.4607 42.8857 97.7624 43.3866C99.2886 44.0752 105.76 45.5601 106.33 46.7277L106.245 46.9149L105.826 47.0535C105.517 47.0548 105.21 47.0616 104.901 47.0741C104.711 46.9718 104.475 46.8747 104.274 46.7849L103.465 46.5656C103.065 47.0127 101.613 50.0882 101.269 50.8162C101.746 51.2516 102.303 51.7366 102.75 52.1929C103.296 52.9241 104.669 54.5835 104.102 55.5414L104.211 55.5702C104.475 54.2948 105.192 53.607 105.976 52.6229C106.196 52.3959 107.488 51.4771 107.881 51.1617C109.529 50.218 110.773 49.4711 112.72 49.4254C112.874 49.4218 112.868 49.4035 113.02 49.3304C113.384 48.2902 111.98 48.6574 114.269 47.0857C113.866 45.7829 113.337 44.9513 113.085 43.6377C112.481 43.6377 111.799 43.6156 111.202 43.5529C108.122 43.2281 101.113 40.4387 100.167 37.2616C100.785 33.9102 101.307 30.0781 102.28 26.7052C105.074 17.02 110.423 -0.137301 123.457 1.78156C125.971 2.1516 127.872 3.62634 129.457 5.51808C132.255 1.63682 138.766 2.85394 142.049 5.44541C148.554 10.5811 151.161 20.0848 152.522 27.9182C152.945 30.5941 154.247 40.1132 152.963 42.5049C152.151 44.0168 145.155 45.0246 143.285 45.1977C141.209 45.3898 137.899 45.1938 135.78 44.1988C135.447 45.6053 134.483 46.9481 134.773 47.8063C135.16 48.2962 135.668 48.2199 136.253 48.7638C137.385 49.0031 138.73 47.1429 140.165 47.6403L140.24 47.8555C139.636 48.9858 136.946 49.8442 136.429 50.911L136.486 51.0167C137.844 50.9174 140.325 48.9708 141.621 49.4037C141.903 49.7617 141.81 49.5542 141.824 50.0799C141.344 51.0047 137.955 51.5919 136.411 53.0894C137.457 52.802 138.489 52.4641 139.503 52.0767C140.033 51.8679 142.647 50.5012 142.78 51.7253C142.165 52.8591 138.638 53.3206 138.816 54.2297C140.381 54.3433 142.746 52.2831 143.787 53.1339C143.958 54.2116 141.514 55.0546 140.651 55.5589C141.108 55.5639 141.497 55.5745 141.953 55.5131C142.654 55.4189 144.062 54.86 144.684 55.1919C144.52 56.0693 142.586 56.4524 141.824 56.6109C142.51 57.1018 143.887 59.7707 144.35 60.6082C144.567 62.2324 145.201 64.1674 145.625 65.7921C146.271 68.2664 146.615 70.2496 146.89 72.7806C146.279 72.3737 145.734 71.8502 145.062 72.4568C144.905 73.2703 146.408 74.4742 146.919 75.3475L146.962 75.4205C146.9 89.3987 137.945 91.1658 127.874 83.6919C126.89 82.9618 125.938 82.2904 125.029 81.4413C125.863 80.9709 126.335 80.8461 126.705 79.9857L126.678 79.7048C125.756 79.0937 124.667 79.9634 123.871 80.4595C122.721 79.4646 118.599 75.1023 117.942 74.8458L117.736 74.9628C117.259 76.9838 121.12 80.1041 122.568 81.4218C126.31 84.8272 130.203 87.4326 134.994 89.1441C135.233 90.7668 136.347 92.1091 136.932 93.8954C137.41 94.1546 137.651 94.2356 137.984 94.6454L138.014 94.8936C137.12 95.8158 129.023 96.067 127.388 96.1491C123.79 96.3297 112.549 95.153 109.667 96.4106C109.629 95.8562 109.651 95.7498 109.765 95.2023C108.434 95.2948 108.957 92.8436 109.043 91.9681C109.377 88.5936 110.282 85.3423 111.141 82.0757C106.319 88.1925 102.691 87.7517 96.1831 83.8249C94.9056 83.0537 92.6016 82.0403 92.0465 80.647C91.733 79.6367 91.2144 78.8477 90.954 77.8362C91.3594 77.2968 92.2881 74.7469 92.5509 74.0033C89.9438 75.5379 88.6003 78.2704 86.8182 80.6571C83.8814 84.5901 78.8592 89.3169 73.4497 88.0364C65.4447 86.1416 59.111 79.046 55.8179 71.7687C55.6856 71.4761 55.3763 71.3093 55.0738 71.2674L54.8592 71.4991C54.5508 72.6142 54.7616 73.216 55.2313 74.2662L55.0165 74.359C54.6262 73.5956 54.4205 73.3623 53.8098 72.7632C55.0944 78.0166 61.275 83.8854 65.8638 86.5523C66.718 87.0488 67.3815 87.4368 68.241 87.8532C68.9114 88.178 71.5168 89.1468 71.8703 89.4341C71.5 90.9598 66.2356 90.5501 64.9766 90.4633C58.2418 89.9991 51.5433 89.521 44.9031 88.2569C43.0565 87.9054 40.3186 87.458 38.5076 87.7392C38.5296 87.1086 38.6353 86.6333 38.7525 86.0197C37.0367 81.3624 42.9607 72.256 45.4085 68.2488C46.8304 65.9211 49.3502 61.9357 51.1363 59.9916C46.3823 56.2601 43.3736 51.871 42.947 45.7585C42.9449 45.0164 42.9139 44.2415 42.8947 43.4966C42.6662 44.3422 42.5465 44.9223 42.3969 45.7871Z" fill="var(--fill-0, #FEFEFE)"/>
<path id="Vector_2" d="M42.3969 45.7871C40.834 54.296 49.1456 59.1632 49.0175 60.8221C48.6187 60.9353 47.7716 60.4901 47.416 60.2693C44.5609 58.496 42.207 55.1906 41.2802 51.9928C40.2378 48.3965 40.3838 44.6784 42.1965 41.3882C44.1295 37.8797 47.8368 35.5934 49.1617 31.575C49.9316 29.2393 50.1067 27.2857 50.2253 24.8819C50.4911 17.8143 50.768 10.9389 56.2091 5.70139C58.7164 3.28792 60.6973 1.76705 64.1626 0.835518C70.1612 -0.777119 76.5883 -0.229664 81.3416 4.01927C81.7702 3.0284 82.5492 2.19289 83.5955 1.90353C91.0624 -0.149333 97.8178 3.62587 100.29 10.9249C102.425 17.2285 101.161 23.1377 99.0045 29.2021C97.5054 33.4202 95.9498 37.3678 97.5997 41.8219C97.7871 42.3275 97.4607 42.8857 97.7624 43.3866C99.2886 44.0752 105.76 45.5601 106.33 46.7277L106.245 46.9149L105.826 47.0535C105.517 47.0548 105.21 47.0616 104.901 47.0741C104.711 46.9719 104.475 46.8747 104.274 46.7849L103.465 46.5656C101.472 45.9235 99.4866 45.3355 97.4666 44.7727C95.6221 44.2592 93.8426 43.4597 92.0099 42.9192C91.575 42.7909 90.8608 43.0018 90.4696 43.2136C89.3204 43.7264 89.2526 45.6533 88.6697 46.7016C87.9 48.0856 85.7987 49.6578 84.2244 49.7895L84.1033 49.6585C84.4674 48.7864 85.7912 48.094 86.485 47.4679C88.2093 45.9119 88.5269 43.22 87.6843 41.1392C87.5454 40.8021 87.3897 40.4722 87.2176 40.1508C83.3353 41.8448 81.9104 43.796 77.3582 42.1001C74.6875 41.1051 71.8438 38.0802 69.1129 39.3214C65.0844 41.1523 67.5741 46.7849 70.8411 48.0109C71.2221 48.1538 71.8158 48.4895 72.0912 48.7587C72.0307 48.9634 71.8761 49.1203 71.6821 49.2191C71.2098 49.4599 70.5507 49.1751 70.11 48.9814C68.345 48.2056 67.0177 46.2007 64.8927 46.9643C60.6839 48.4767 48.8762 65.3513 46.1038 69.6848C44.3653 72.4025 42.6542 75.2327 41.3529 78.1909C40.4933 80.145 39.0265 83.964 38.7525 86.0197C37.0367 81.3624 42.9607 72.256 45.4085 68.2488C46.8304 65.9211 49.3502 61.9357 51.1363 59.9916C46.3823 56.2601 43.3736 51.871 42.947 45.7585C42.9449 45.0164 42.9139 44.2415 42.8947 43.4966C42.6662 44.3422 42.5465 44.9223 42.3969 45.7871Z" fill="var(--fill-0, #232021)"/>
<path id="Vector_3" d="M75.5821 13.6775C77.3828 14.8789 78.8463 15.7745 81.0633 15.8581C83.8353 15.9626 85.439 15.4799 87.4783 13.6524C89.1862 16.5659 90.3896 17.2767 93.5269 18.2531C93.7861 21.0531 93.5988 24.3043 93.1144 27.0545C91.6966 35.1018 87.6995 41.6081 78.6403 39.8543C73.8216 38.5459 70.4272 35.0143 68.7441 30.3753C67.9915 28.3008 67.6552 26.4467 66.6935 24.3867C66.4202 25.7668 66.574 26.7879 66.6138 28.1807C65.4435 27.5455 64.5118 27.7626 63.586 26.752C63.0207 26.1378 62.7225 25.3239 62.7567 24.4894C62.9415 20.7294 66.7593 22.9262 68.5289 23.128C71.6645 23.4857 74.1769 19.2865 75.0123 16.7426C75.3399 15.7449 75.4707 14.7611 75.5821 13.6775Z" fill="var(--fill-0, #FEFEFE)"/>
<path id="Vector_4" d="M85.8811 18.9034C85.9727 18.8955 86.0643 18.8884 86.156 18.8823C87.0147 18.8265 87.5471 18.7709 88.1901 19.3315C88.4851 20.1883 87.7638 20.4648 87.1185 20.8366C85.9362 20.867 84.2433 20.3403 84.5943 22.5669C85.5398 22.9227 88.5643 20.9206 87.3275 25.1062C87.177 25.6153 86.7393 25.9335 86.2878 26.1444C85.848 26.1114 85.986 26.0358 85.7118 26.2161C85.9208 26.9419 86.5323 27.3133 86.2865 28.0598C84.8093 28.2605 83.9576 25.9841 83.6296 24.8611C82.8793 22.2926 82.8227 19.7131 85.8811 18.9034Z" fill="var(--fill-0, #232021)"/>
<path id="Vector_5" d="M78.2667 23.0153C79.0595 22.9839 79.9928 22.8485 80.5946 23.4769C81.3842 24.3014 81.0103 25.5493 80.2479 26.2466C79.9616 26.5086 79.5213 26.4489 79.1574 26.4362C78.5538 26.0483 78.3406 25.3931 78.3518 24.7022C78.5702 24.3049 78.4153 24.4543 78.8557 24.2642L78.8568 24.2158C78.3478 24.2323 77.7639 24.296 77.2908 24.1529C77.0488 23.4995 77.7452 23.23 78.2667 23.0153Z" fill="var(--fill-0, #232021)"/>
<path id="Vector_6" d="M78.6409 19.3637C79.6684 19.3018 80.5113 19.2503 81.2554 20.0857L81.2242 20.3441C80.3585 21.0839 79.2311 20.6368 78.1604 20.9944C77.6162 21.3619 76.4857 22.175 76.126 21.1726C76.3315 19.961 77.6227 19.621 78.6409 19.3637Z" fill="var(--fill-0, #232021)"/>
<path id="Vector_7" d="M79.7377 31.3498C80.118 31.3741 80.3439 31.3387 80.6182 31.5913C81.5549 33.7432 83.3583 31.5808 83.9099 32.9413C83.8029 33.3684 83.8201 33.3604 83.5491 33.7394C81.5506 34.5863 78.4173 33.5529 79.7377 31.3498Z" fill="var(--fill-0, #232021)"/>
<path id="Vector_8" d="M100.167 37.2617C100.786 33.9103 101.308 30.0782 102.28 26.7053C105.074 17.0201 110.424 -0.13722 123.457 1.78164C125.971 2.15168 127.872 3.62643 129.457 5.51816C132.255 1.6369 138.766 2.85402 142.05 5.44549C148.554 10.5811 151.161 20.0849 152.522 27.9183C152.945 30.5942 154.248 40.1132 152.963 42.505C152.151 44.0169 145.155 45.0246 143.285 45.1978C141.21 45.3898 137.899 45.1939 135.78 44.1989C135.448 45.6054 134.484 46.9482 134.774 47.8064C135.16 48.2963 135.668 48.22 136.254 48.7639C137.385 49.0032 138.73 47.143 140.165 47.6404L140.241 47.8556C139.636 48.9859 136.947 49.8443 136.429 50.9111L136.486 51.0168C137.845 50.9175 140.326 48.9709 141.621 49.4038C141.904 49.7618 141.811 49.5543 141.825 50.08C141.344 51.0048 137.956 51.592 136.412 53.0895C137.457 52.8021 138.49 52.4642 139.503 52.0768C140.033 51.868 142.647 50.5013 142.781 51.7254C142.165 52.8592 138.638 53.3207 138.816 54.2298C140.381 54.3434 142.746 52.2832 143.787 53.134C143.958 54.2116 141.515 55.0547 140.651 55.559C141.108 55.5639 141.497 55.5745 141.953 55.5132C142.654 55.419 144.063 54.8601 144.684 55.192C144.52 56.0694 142.586 56.4525 141.825 56.6109C140.44 56.6621 140.085 56.8852 139.382 55.5839C138.791 55.2504 138.314 55.6562 137.78 55.2246C137.29 54.829 137.535 54.2062 136.869 54.2101C135.939 54.2155 135.345 54.5393 134.944 53.4769C134.972 53.1035 134.976 53.1168 135.118 52.7661C134.87 52.2018 134.283 51.7546 134.685 51.0798C134.974 50.5944 135.319 50.1595 135.604 49.6685C135.227 49.1392 134.447 48.6569 133.905 48.1488C133.192 48.7882 131.18 50.4485 130.236 49.4914C130.606 48.7193 131.726 48.2254 132.394 47.6359C134.4 45.8649 134.834 43.3751 133.898 40.935C133.749 40.5492 133.676 40.3989 133.339 40.1576C130.955 39.4734 126.188 45.8012 119.305 43.7868C117.62 43.2761 116.13 42.2644 115.033 40.8859C114.598 43.331 114.307 45.6245 116.485 47.4115C116.553 47.7185 116.618 47.8233 116.503 48.1072C115.771 48.4397 114.984 47.6964 114.492 47.2259C113.968 48.011 113.487 48.5026 113.501 49.4257C114.015 50.1439 114.075 49.6771 114.638 49.9408C120.329 52.6012 122.071 59.4806 125.58 64.2018C126.17 64.9968 126.846 65.854 127.31 66.6925C127.642 66.4511 128.249 65.9289 128.642 66.0576C130.176 66.5604 132.431 72.1382 134.318 71.2535C134.698 71.0755 135.338 69.9871 136.557 69.7031C136.944 69.7896 136.809 69.682 137.021 69.9619C137.131 70.6875 136.576 71.8316 136.103 72.3405C133.372 75.2781 129.757 69.5084 128.395 67.5558C125.451 70.0669 122.279 73.3551 118.229 73.1372C116.61 72.1062 117.12 70.9591 118.034 69.4626C118.295 69.0341 119.256 68.1764 119.804 68.2743C119.931 68.6134 119.792 68.9274 119.708 69.3353L119.831 69.3851L120.75 68.7086C120.015 67.4994 119.549 67.0197 118.705 65.9323C115.173 66.0768 113.631 66.34 110.792 63.9658C109.749 63.8128 108.406 63.972 107.378 64.2929C106.44 64.5858 104.325 64.4203 104.935 62.9229C105.983 60.3539 108.66 59.9013 111.139 60.0713C111.343 60.0496 111.367 60.033 111.565 59.9754L111.64 59.5885C111.609 59.4184 111.582 59.3737 111.521 59.2114C109.182 58.2198 109.248 57.2832 109.964 55.0033C108.683 56.0364 104.42 59.1991 104.212 55.5703C104.476 54.2949 105.192 53.6071 105.976 52.6229C106.196 52.396 107.488 51.4772 107.882 51.1618C109.529 50.2181 110.774 49.4712 112.721 49.4255C112.874 49.4218 112.868 49.4036 113.02 49.3304C113.384 48.2903 111.981 48.6575 114.269 47.0858C113.866 45.783 113.337 44.9514 113.085 43.6378C112.482 43.6378 111.799 43.6157 111.203 43.553C108.122 43.2282 101.113 40.4388 100.167 37.2617Z" fill="var(--fill-0, #232021)"/>
<path id="Vector_9" d="M113.963 61.2355C114.715 61.9838 116.472 63.6047 117.594 62.5352C117.907 61.8921 117.62 61.4233 117.587 60.7683C117.574 60.4866 118.012 60.1759 117.934 59.737C117.488 59.5313 116.746 59.742 116.481 60.153C116.429 60.7979 116.643 61.3291 116.455 61.6497C115.676 61.6531 115.102 60.7373 115.128 59.9983C115.177 58.5714 117.41 58.338 117.299 56.9702C116.868 56.7429 116.854 56.8862 116.427 56.9572C114.535 57.2725 114.466 59.0887 113.688 59.8698C112.597 59.5698 112.692 58.5871 112.89 57.6698C113.119 56.6157 115.151 55.5274 115.048 54.7411C113.94 54.0343 111.906 56.8609 111.459 57.7512C111.377 57.9156 111.431 57.86 111.203 57.7782C109.594 55.7367 113.447 54.1635 113.331 53.0045C112.663 52.502 111.3 52.8703 110.548 53.0683C109.396 53.3722 107.273 55.4204 106.182 55.3979L106.094 55.2244C106.768 53.1252 111.568 50.2342 113.782 51.2548C120.28 54.2489 121.343 62.7192 126.406 67.4656C120.692 71.1485 123.156 68.0463 119.692 64.8273C118.931 64.1206 115.362 64.7862 114.251 64.3301C112.637 63.8757 111.847 62.4587 110.332 62.3223C109.067 62.2086 107.48 62.93 106.194 63.1477C106.961 61.9868 107.346 61.8683 108.644 61.3423C109.249 61.0968 111.021 60.752 111.139 60.0713C111.343 60.0496 111.366 60.0329 111.564 59.9754L111.64 59.5885C112.274 60.7118 112.629 61.2617 113.963 61.2355Z" fill="var(--fill-0, #DEDEDD)"/>
<path id="Vector_10" d="M125.489 14.2502C125.83 14.7343 126.162 15.8958 126.594 16.5615C128.036 18.7847 129.944 20.9425 132.267 22.2359C134.498 23.4775 135.971 22.5334 138.189 21.8064C139.063 22.2761 139.677 22.8359 139.884 23.8236C140.426 26.406 139.553 27.9275 137.177 28.5204C137.201 27.2566 137.123 26.228 136.983 24.9786C135.572 30.1733 133.131 36.1908 128.765 39.5067C128.503 39.6858 128.238 39.8582 127.969 40.0241C125.608 41.4578 122.655 41.6346 120.028 40.9535C110.146 38.3917 110.833 26.5135 112.943 18.7426C117.821 18.8509 122.023 17.9128 125.489 14.2502Z" fill="var(--fill-0, #DEDEDD)"/>
<path id="Vector_11" d="M119.293 22.738C119.888 22.7391 119.935 22.7148 120.236 23.1819C120.415 24.5649 118.633 26.4579 118.009 27.7135C117.7 28.3394 117.547 28.6993 117.302 29.3652C118.068 29.5877 118.497 29.4706 118.936 30.1407C118.939 30.5478 118.999 30.3655 118.712 30.693C117.553 31.1993 116.437 30.6392 115.969 29.4978C116.014 29.1016 116.481 27.4604 116.459 27.4183C115.918 26.4284 114.555 24.7197 115.654 23.343C116.052 23.1412 115.85 23.1655 116.278 23.2561C116.896 23.8789 116.436 25.7325 117.235 26.053C117.672 25.7709 119.021 23.3215 119.293 22.738Z" fill="var(--fill-0, #232021)"/>
<path id="Vector_12" d="M122.703 23.6257C123.065 23.6386 123.073 23.6386 123.419 23.7378C124.186 24.6095 123.23 25.1916 123.669 26.1606C125.571 27.273 126.022 23.01 127.389 24.5359C127.468 25.0369 127.481 24.7883 127.291 25.3044C126.487 26.6461 125.04 28.1095 123.324 27.4153C122.875 27.2381 122.521 26.8789 122.352 26.4267C122 25.51 122.352 24.4853 122.703 23.6257Z" fill="var(--fill-0, #232021)"/>
<path id="Vector_13" d="M124.043 19.6268C125.272 19.556 127.819 19.3936 128.243 20.9432C128.05 21.7378 127.509 21.5893 126.857 21.4384C125.965 20.9707 123.876 22.4326 123.108 21.1987C123.023 20.329 123.307 19.99 124.043 19.6268Z" fill="var(--fill-0, #232021)"/>
<path id="Vector_14" d="M117.325 18.9041C118.61 18.7658 120.299 18.8632 120.759 20.3379C120.651 21.1481 120.088 21.1933 119.381 21.1793C118.812 20.9447 118.4 20.7493 117.78 20.6702C117.186 20.5945 115.836 20.5816 115.747 19.8481C116.094 19.3107 116.747 19.102 117.325 18.9041Z" fill="var(--fill-0, #232021)"/>
<path id="Vector_15" d="M122.603 33.0953C123.032 33.1485 123.154 33.126 123.477 33.417C123.554 33.5967 123.654 33.722 123.602 33.8977C123.089 35.6331 121.377 35.8718 120.025 35.667C119.662 35.5194 119.62 35.4771 119.306 35.2607C119.123 34.9099 119.12 34.9382 119.171 34.5479C119.734 33.9323 120.58 34.5109 121.647 34.3385C122.019 34.1262 122.354 33.4864 122.603 33.0953Z" fill="var(--fill-0, #232021)"/>
<path id="Vector_16" d="M91.213 64.1289C90.7734 64.8833 90.0536 66.2824 89.8798 67.109C90.0173 67.3258 91.9473 67.702 92.4882 68.0168C93.3698 68.5294 94.9101 69.6685 93.8812 70.8428C90.9467 74.1936 86.0097 68.3802 83.0988 67.9448C82.2842 67.8229 80.2334 70.9396 79.6054 71.4861C77.9065 73.0417 75.9279 74.8374 73.6004 75.3125C72.914 75.4525 72.1947 75.1714 72.2382 74.3626C72.5467 73.8993 72.9881 73.9891 73.1524 73.7593L72.7405 73.6981L72.6859 73.5365C73.1255 72.9587 75.3723 72.6272 76.1927 72.1645C78.2915 70.981 79.5794 68.9529 81.1284 67.1731C81.5798 66.6544 82.2234 65.9306 82.5661 65.3631C83.3209 64.0746 83.7169 62.8312 84.3735 61.4729C86.6684 56.7248 89.8436 50.0419 95.5418 48.8464C97.6172 48.4109 99.6525 49.6269 101.268 50.8162C101.746 51.2516 102.303 51.7367 102.75 52.1929C103.295 52.9242 104.668 54.5835 104.102 55.5415C103.905 55.6946 103.622 55.9191 103.379 55.9674C101.998 56.2431 99.5524 54.1947 98.2583 53.3729C99.9389 56.3136 98.7404 57.2865 96.4988 59.1725C95.1293 60.3251 93.6408 62.8149 91.6361 61.9287C90.9078 61.6068 91.3898 60.5774 91.1789 59.8552C90.9184 59.6913 90.7522 59.6341 90.619 59.3655C91.0905 58.1328 93.16 58.6133 92.4092 61.0039C93.1835 61.2542 93.7705 60.0818 93.9366 59.4858C94.4363 57.6907 92.0804 57.7595 91.4393 56.6015C91.6349 55.9857 92.5012 56.1195 93.0032 56.287C94.256 56.7053 94.7805 57.4612 95.3356 58.5889L95.9826 57.2843C95.4369 56.1636 94.2277 54.8191 94.038 54.1328L94.1335 53.9683C95.6172 54.0261 96.7097 55.9149 97.1588 57.1777C98.7015 53.2668 95.4605 53.4499 95.4204 52.1551C95.9119 51.8952 96.3621 52.0232 96.8724 51.9929C98.9867 51.8674 100.79 53.2999 102.502 54.383C101.549 52.9236 100.393 51.743 98.8405 50.9239C92.0734 47.3539 86.2244 59.9251 84.4944 64.8136C85.1518 67.0834 86.0388 67.4403 87.9375 68.6679C88.3994 67.2751 89.4904 63.0433 90.6556 62.9031C92.9231 62.6303 94.7604 63.8025 97.1505 61.7905C98.4528 60.6933 100.836 61.7871 102.493 62.2498L102.642 62.0981L102.604 61.8356C101.529 60.2752 98.6909 59.9801 96.8512 59.562C99.0703 58.7326 101.622 58.9963 103.354 60.767C105.142 62.595 103.588 64.1232 101.484 63.3691C101.011 63.2001 100.417 63.0579 99.926 62.9195C98.4681 62.4703 97.3403 63.2626 96.1794 64.0229C94.7852 64.9164 92.731 64.4881 91.213 64.1289Z" fill="var(--fill-0, #232021)"/>
<path id="Vector_17" d="M111.917 76.621C112.745 74.1933 113.015 72.1727 113.864 69.8227C115.151 72.8797 113.725 76.3179 113.122 79.4331C112.765 81.2793 112.367 83.495 111.81 85.2735C112.669 84.6711 113.067 84.2391 114.09 84.2241L114.31 84.3448C114.554 85.5501 112.223 86.8389 111.3 87.2497C111.065 88.4981 110.837 89.7321 110.635 90.9858C110.406 92.4085 110.483 93.9312 109.765 95.2025C108.434 95.295 108.957 92.8438 109.044 91.9683C109.377 88.5938 110.282 85.3424 111.141 82.0759C106.319 88.1927 102.691 87.7519 96.1833 83.8251C94.9058 83.0539 92.6017 82.0405 92.0466 80.6471L92.1857 80.6307C95.4797 80.2705 101.778 87.3338 106.154 84.4149C108.398 82.9182 110.042 80.4578 111.249 78.1132C110.446 78.1849 109.926 78.3294 109.269 77.8303C108.886 76.7418 111.295 76.6548 111.917 76.621Z" fill="var(--fill-0, #232021)"/>
<path id="Vector_18" d="M108.144 66.1312C109.726 66.1211 109.067 67.714 108.559 68.5317C107.069 70.931 105.237 74.5086 102.301 75.3241C100.543 75.8124 98.3375 74.1873 96.9114 73.2427C96.4436 72.9041 95.6586 72.5164 95.8661 71.9107C97.2025 71.3665 99.9368 74.0354 101.251 73.8594C104.637 73.4058 106.132 68.1643 108.144 66.1312Z" fill="var(--fill-0, #232021)"/>
<path id="Vector_19" d="M138.537 79.4394C139.453 79.6679 140.646 80.6681 140.872 81.6294C140.761 82.1807 140.841 81.9776 140.466 82.4199C139.542 82.1987 138.321 81.1021 138.065 80.1578C138.164 79.7089 138.162 79.8267 138.537 79.4394Z" fill="var(--fill-0, #232021)"/>
<path id="Vector_20" d="M98.8423 78.6081C99.8653 78.6405 100.534 79.5184 100.907 80.4239C101.047 80.7656 100.84 80.9981 100.678 81.3008C99.6166 81.3467 98.9095 80.3694 98.5654 79.4384C98.4652 79.1655 98.6997 78.8444 98.8423 78.6081Z" fill="var(--fill-0, #232021)"/>
<path id="Vector_21" d="M126.558 90.053C127.461 90.3035 128.325 91.2258 128.435 92.1806C128.266 92.6591 128.325 92.5066 127.889 92.8767C127.06 92.5938 126.292 91.7725 126.125 90.8887C126.065 90.5757 126.378 90.2849 126.558 90.053Z" fill="var(--fill-0, #232021)"/>
<path id="Vector_22" d="M131.173 58.4908C131.543 58.5042 131.577 58.5622 131.894 58.7496C132.358 59.6562 130.938 60.3006 130.281 60.6239C129.708 60.5832 129.426 60.4544 129.424 59.8892C129.826 59.1198 130.429 58.876 131.173 58.4908Z" fill="var(--fill-0, #232021)"/>
<path id="Vector_23" d="M55.2313 74.2664C54.7617 73.2162 54.5509 72.6143 54.8593 71.4992L55.0739 71.2676C55.3764 71.3094 55.6857 71.4762 55.818 71.7688C59.1111 79.0461 65.4448 86.1417 73.4498 88.0365C78.8593 89.317 83.8815 84.5903 86.8183 80.6572C88.6004 78.2705 89.9439 75.538 92.551 74.0034C92.2881 74.747 91.3595 77.2969 90.954 77.8363L90.9093 77.6694C87.5246 82.3153 83.3034 88.665 76.99 89.623C76.3145 89.726 75.6327 89.7832 74.9495 89.7941C75.4755 92.4356 75.3294 98.4008 75.3624 101.351C75.4436 105.904 75.705 110.452 76.1462 114.983C76.9083 122.054 77.8575 129.105 78.9927 136.126C81.2422 150.275 84.3324 164.334 85.4384 178.646C85.8224 183.617 84.1653 184.375 79.4536 185.207C77.1906 185.607 74.5527 185.907 72.2537 186.034C72.2028 187.289 71.9632 189.078 72.9809 190.099C75.2058 192.33 81.5314 193.464 82.158 196.944C82.2238 197.308 81.7973 197.954 81.9083 198.286C82.3207 198.304 82.7474 198.271 83.0809 198.488L83.1569 198.764C82.1064 200.161 63.7245 198.92 61.7503 198.378L61.7331 198.219C62.5799 197.707 64.3528 198.02 65.3483 197.67C65.7632 198.58 64.8257 196.479 65.1403 197.346C63.8421 193.765 64.9935 189.753 63.8626 186.027C61.1858 185.938 54.1619 185.328 52.438 183.326C50.519 181.098 51.6077 171.201 51.9169 168.091C52.3985 163.245 52.6825 154.988 54.3794 150.722C57.5158 150.866 62.3257 148.867 64.5246 146.691C69.818 141.455 71.6458 131.589 71.8735 124.51C72.098 118.249 71.7344 111.982 70.7875 105.789C70.6341 104.785 70.1297 101.027 69.0821 100.716C68.9444 100.953 69.3419 102.245 69.4255 102.599C69.7509 103.973 69.974 105.353 70.1224 106.76C70.8462 117.775 71.6986 134.076 64.7633 143.387C63.1943 145.494 59.8899 147.136 57.4053 147.759C44.299 151.047 27.569 145.163 16.0236 139.05C14.9457 138.479 13.4642 137.482 13.2841 136.286C12.8369 133.315 14.1027 129.43 14.8882 126.584C13.5554 126.565 12.9552 126.504 11.6847 126.106L11.5467 126.204C9.82684 127.439 8.90475 129.302 7.86752 131.032C6.75415 132.891 5.2653 137.318 2.48631 136.882C-0.759269 136.372 -0.135115 131.425 0.547377 129.297C1.53629 126.212 3.53321 121.153 5.73754 118.881C4.51104 118.57 2.9978 118.294 1.9674 117.617L1.9027 117.42C2.38755 116.541 5.58481 117.681 6.37679 117.806C10.1017 118.392 13.4954 119.461 17.064 120.641C17.6391 119.384 18.1593 117.819 19.5474 117.265C23.1521 115.824 37.2504 122.182 41.1391 124.01C42.4039 124.605 43.7845 125.174 44.9064 126.014C44.1327 124.167 43.4731 122.289 42.6902 120.441C39.169 112.124 35.4966 102.276 38.9317 93.3384C39.4309 92.0393 40.6037 89.8397 41.9322 89.3281L41.9137 89.2097C41.0908 88.9685 38.6992 88.5357 38.2814 88.1024C38.3826 87.8186 38.304 87.9376 38.5076 87.7393C40.3187 87.4581 43.0566 87.9055 44.9032 88.2571C51.5433 89.5211 58.2419 89.9992 64.9767 90.4634C66.2357 90.5502 71.5001 90.9599 71.8704 89.4342C71.5169 89.1469 68.9115 88.1781 68.2411 87.8533C67.3816 87.4369 66.7181 87.0489 65.8639 86.5524C61.2751 83.8856 55.0945 78.0167 53.8099 72.7633C54.4206 73.3624 54.6263 73.5957 55.0166 74.3591L55.2313 74.2664ZM15.2671 125.663C15.3934 124.739 15.6519 122.219 14.9402 121.725C13.4592 120.695 8.9077 119.752 7.22851 119.346C4.68311 123.051 1.23117 129.367 1.82032 134.107C1.87748 134.567 2.01384 134.816 2.39474 135.069C4.01759 135.298 5.64267 131.601 6.32305 130.309C6.91173 129.204 7.49251 128.185 8.18431 127.147C10.4582 123.738 12.0381 124.012 15.2671 125.663ZM68.9148 186.297C67.3818 186.536 66.7523 186.546 65.8939 187.946C65.8931 189.786 65.9486 191.984 65.8665 193.794C67.4114 193.939 68.9612 194.72 70.4338 195.285C73.1806 196.337 74.7384 196.936 77.6605 197.235C78.3245 197.247 79.9227 197.384 80.3551 197.006C79.8955 194.993 71.161 192.808 70.6411 189.755C70.4188 188.449 70.4948 187.557 70.63 186.287C70.2509 186.287 69.2429 186.26 68.9148 186.297ZM65.7447 197.719C67.8339 197.701 70.4888 197.621 72.5493 197.837C72.0731 197.51 69.3829 196.621 68.5135 196.254C67.6919 195.908 66.4799 195.197 65.831 194.917C65.8236 195.795 65.8431 196.864 65.7447 197.719Z" fill="var(--fill-0, #232021)"/>
<path id="Vector_24" d="M55.2313 74.2663C55.6611 74.8313 55.9359 75.5386 56.2114 76.1974C55.7889 75.6033 55.3346 75.0128 55.0166 74.359L55.2313 74.2663Z" fill="var(--fill-0, #B5B3B4)"/>
<path id="Vector_25" d="M144.35 60.6083C147.559 63.8752 148.151 70.9611 148.251 75.3777C148.402 81.999 146.037 89.7909 138.056 89.5214C137.298 89.4958 136.381 89.4606 135.611 89.4697C136.623 90.7352 138.254 93.3156 138.26 94.9635C138.986 95.1776 145.455 92.9652 146.792 92.6597C145.502 94.2825 145.206 94.33 143.27 95.1667C145.823 97.6766 146.173 102.317 146.374 105.667C146.71 111.302 144.196 116.653 143.729 122.038C144.765 121.659 145.609 121.302 146.591 120.811C149.682 119.267 155.412 115.482 158.096 119.603C159.459 118.942 160.866 118.377 162.308 117.909C164.042 117.333 177.32 113.547 178.154 113.863C178.302 113.919 178.308 113.935 178.414 114.024C178.465 114.741 177.821 115.13 177.243 115.385C180.336 119.049 181.748 124.794 181.681 129.531C181.638 132.527 178.992 134.373 177.193 131.368C175.719 128.912 174.152 125.144 173.412 122.379C170.806 122.705 166.971 124.121 164.499 125.028C162.998 125.578 161.833 126.132 160.217 126.495C161.334 124.241 163.478 123.61 165.67 122.797C166.891 122.346 173.413 120.299 174.21 121.033C175.565 122.283 177.402 130.394 179.343 130.98C179.57 130.884 179.765 130.8 179.827 130.465C180.515 126.723 179.025 121.706 177.22 118.431C176.687 117.464 176.176 116.73 175.741 115.858C174.643 116.317 173.513 116.358 172.301 116.743C169.128 117.748 163.816 118.847 160.964 120.288C159.372 121.093 159.266 125.337 159.563 126.692C159.715 129.772 160.231 133.276 159.375 136.245C158.523 138.284 153.081 140.831 150.956 141.815C145.185 144.489 137.345 146.885 131.128 144.757C127.718 143.589 125.259 140.412 123.859 137.205C121.655 132.156 120.59 126.011 120.034 120.536C119.863 118.651 119.526 116.708 119.342 114.777C119.214 113.446 119.094 111.03 118.864 109.831C118.666 110.894 118.874 116.397 118.927 117.605C119.135 125.286 120.138 133.085 123.406 140.2C125.173 144.046 129.647 146.66 133.567 147.975C133.694 151.45 133.397 155.075 133.662 158.576C134.005 163.114 134.735 167.615 134.905 172.165C134.955 173.506 134.975 176.039 133.974 177.042C132.407 178.614 127.885 178.255 125.754 178.234C125.799 185.206 125.287 191.552 124.969 198.484C125.739 198.606 127.566 198.701 127.985 199.216C127.745 199.487 127.463 199.545 127.112 199.624C124.961 200.11 109.007 200.655 107.427 199.465C107.277 199.353 107.322 199.354 107.298 199.151C107.916 198.744 108.737 198.98 109.035 198.653C108.978 198.473 108.763 197.826 108.803 197.678C109.496 195.121 116.453 192.501 117.863 190.975C120.044 188.613 118.565 181.064 118.619 178.218C120.532 180.136 120.305 181.826 120.373 184.399C120.426 186.395 120.507 189.758 119.51 191.542C118.624 193.13 110.806 196.381 110.616 197.883L110.782 198.063C113.568 198.726 117.613 197.753 120.292 196.874C121.371 196.52 122.688 196.015 123.818 196.043C123.548 191.009 124.16 185.735 123.933 180.708C123.86 179.063 121.226 178.063 119.857 177.82C115.126 176.98 109.952 176.476 105.678 174.153C103.918 173.197 103.646 170.882 103.637 169.1C103.579 166.435 103.864 163.81 104.149 161.172C104.559 157.16 105.091 153.163 105.741 149.184C107.92 135.312 110.907 121.161 111.64 107.079C111.721 105.513 111.549 103.707 111.534 102.132C111.522 100.824 111.825 99.4023 111.744 98.1661C111.678 97.154 109.938 97.9443 109.667 96.4107C112.55 95.1532 123.791 96.3298 127.389 96.1492C129.023 96.0671 137.12 95.816 138.014 94.8938L137.984 94.6456C137.651 94.2358 137.41 94.1547 136.933 93.8956C136.347 92.1092 135.233 90.7669 134.994 89.1442C130.203 87.4328 126.31 84.8274 122.569 81.422C121.12 80.1042 117.259 76.9839 117.737 74.9629L117.943 74.8459C118.599 75.1025 122.722 79.4648 123.871 80.4596C124.668 79.9635 125.756 79.0938 126.678 79.7049L126.705 79.9858C126.335 80.8462 125.864 80.971 125.029 81.4414C125.938 82.2905 126.89 82.9619 127.874 83.692C137.945 91.166 146.901 89.3988 146.962 75.4206L146.92 75.3476C146.408 74.4743 144.905 73.2704 145.062 72.457C145.734 71.8503 146.28 72.3738 146.89 72.7808C146.615 70.2497 146.271 68.2665 145.625 65.7922C145.201 64.1675 144.567 62.2325 144.35 60.6083Z" fill="var(--fill-0, #232021)"/>
<path id="Vector_26" d="M105.054 166.633L105.172 166.726C105.385 167.225 105.248 168.927 105.211 169.527C104.898 169.104 105.038 167.29 105.054 166.633Z" fill="var(--fill-0, #1A1919)"/>
<path id="Vector_27" d="M104.274 46.7849C104.475 46.8747 104.711 46.9719 104.901 47.0742C104.802 47.8585 104.96 48.0449 105.425 48.6841L105.556 48.8669L105.64 48.9801C105.276 50.2282 104.865 51.6479 105.976 52.6229C105.192 53.6071 104.475 54.2949 104.211 55.5703L104.102 55.5415C104.669 54.5835 103.296 52.9242 102.75 52.1929C102.751 51.8616 102.374 51.4218 102.163 51.1194C102.235 50.8063 103.986 48.4246 104.266 48.0097L104.274 46.7849Z" fill="var(--fill-0, #DEDEDD)" fill-opacity="0.760784"/>
<path id="Vector_28" d="M104.9 47.0744C105.209 47.0619 105.517 47.055 105.825 47.0537C106.046 47.3963 106.224 47.7617 106.454 48.0838C107.253 49.2025 108.311 49.375 107.764 50.9344L107.881 51.1619C107.487 51.4774 106.196 52.3962 105.975 52.6231C104.865 51.6481 105.275 50.2284 105.639 48.9803L105.556 48.8671L105.425 48.6843C104.959 48.0451 104.801 47.8587 104.9 47.0744Z" fill="var(--fill-0, #B5B3B4)" fill-opacity="0.121569"/>
<path id="Vector_29" d="M39.8683 2.64559C40.3265 2.39693 40.883 2.41415 41.3249 2.69065C41.767 2.96715 42.0263 3.46022 42.0039 3.98149C41.9814 4.50276 41.6806 4.97165 41.2164 5.20911C40.5108 5.56995 39.6463 5.29569 39.2772 4.59383C38.9081 3.89196 39.1715 3.02354 39.8683 2.64559Z" fill="var(--fill-0, #232021)"/>
<path id="Vector_30" d="M13.0374 22.3583C13.7795 22.0916 14.598 22.4713 14.8743 23.2104C15.1507 23.9496 14.7823 24.7739 14.0476 25.0604C13.5634 25.2491 13.0153 25.1626 12.6128 24.8337C12.2104 24.5048 12.0159 23.9846 12.1038 23.4721C12.1916 22.9595 12.5484 22.5341 13.0374 22.3583Z" fill="var(--fill-0, #232021)"/>
<path id="Vector_31" d="M162.49 66.1913C163.234 65.9473 164.035 66.3439 164.292 67.0829C164.549 67.8218 164.167 68.6308 163.434 68.9015C162.948 69.0812 162.402 68.9839 162.007 68.6471C161.612 68.3104 161.431 67.7867 161.531 67.2776C161.631 66.7683 161.998 66.353 162.49 66.1913Z" fill="var(--fill-0, #B5B3B4)"/>
<path id="Vector_32" d="M165.803 5.67692L165.953 5.66842C167.862 5.5704 168.71 6.88047 167.263 8.28856C165.107 8.70178 164.293 6.78386 165.803 5.67692Z" fill="var(--fill-0, #B5B3B4)"/>
<path id="Vector_33" d="M183.012 33.7812C183.487 33.5845 184.029 33.6585 184.435 33.9746C184.839 34.2908 185.042 34.8004 184.966 35.3084C184.891 35.8166 184.548 36.2447 184.069 36.4291C183.341 36.7093 182.524 36.352 182.234 35.6273C181.946 34.9026 182.292 34.0798 183.012 33.7812Z" fill="var(--fill-0, #B5B3B4)"/>
<path id="Vector_34" d="M103.465 46.5657L104.274 46.785L104.266 48.0098C103.986 48.4246 102.235 50.8064 102.163 51.1194C102.374 51.4219 102.751 51.8616 102.75 52.193C102.303 51.7367 101.746 51.2517 101.269 50.8163C101.613 50.0883 103.065 47.0128 103.465 46.5657Z" fill="var(--fill-0, #FEFEFE)" fill-opacity="0.882353"/>
<path id="Vector_35" d="M118.927 117.605C118.874 116.397 118.666 110.894 118.864 109.831C119.094 111.03 119.214 113.446 119.342 114.777C119.526 116.708 119.863 118.651 120.034 120.536C120.018 120.796 119.997 121.021 119.973 121.279L119.853 121.245C119.133 119.999 119.546 118.469 119.23 117.385L118.927 117.605Z" fill="var(--fill-0, #1A1919)" fill-opacity="0.0235294"/>
<path id="Vector_36" d="M31.2294 44.4309C31.6481 44.2659 32.1232 44.3399 32.4721 44.6243C32.8211 44.9086 32.9897 45.3593 32.9134 45.8032C32.8369 46.2469 32.5272 46.6151 32.1032 46.7661C31.4626 46.9942 30.7573 46.6661 30.5189 46.0286C30.2804 45.3913 30.5966 44.6801 31.2294 44.4309Z" fill="var(--fill-0, #232021)"/>
<path id="Vector_37" d="M177.283 37.7871C177.937 37.6363 178.592 38.0327 178.763 38.6823C178.933 39.3318 178.557 39.9992 177.912 40.1889C177.479 40.3168 177.011 40.1984 176.689 39.8799C176.367 39.5613 176.245 39.0931 176.369 38.6578C176.492 38.2224 176.843 37.8889 177.283 37.7871Z" fill="var(--fill-0, #232021)"/>
<path id="Vector_38" d="M175.979 71.5162C176.592 71.2639 177.294 71.5432 177.567 72.148C177.841 72.7528 177.586 73.4654 176.992 73.7596C176.588 73.9591 176.108 73.9226 175.741 73.6642C175.372 73.406 175.174 72.9671 175.223 72.5196C175.273 72.072 175.563 71.6873 175.979 71.5162Z" fill="var(--fill-0, #232021)"/>
<path id="Vector_39" d="M11.8142 60.4929C12.2174 60.2961 12.6958 60.3359 13.061 60.5966C13.4264 60.8572 13.6199 61.2969 13.5655 61.7426C13.5112 62.1882 13.2176 62.5684 12.8005 62.7336C12.1889 62.9755 11.4956 62.6905 11.2304 62.0882C10.9652 61.4858 11.223 60.7813 11.8142 60.4929Z" fill="var(--fill-0, #B5B3B4)"/>
<path id="Vector_40" d="M21.9518 24.8307C22.3671 24.706 22.8173 24.8161 23.1286 25.1182C23.4398 25.4204 23.5635 25.8673 23.4516 26.2867C23.3399 26.706 23.0102 27.032 22.59 27.1388C21.959 27.2991 21.3159 26.9253 21.1423 26.2974C20.9687 25.6695 21.3282 25.0178 21.9518 24.8307Z" fill="var(--fill-0, #B5B3B4)"/>
<path id="Vector_41" d="M42.8943 43.4968C42.9135 44.2417 42.9445 45.0166 42.9466 45.7587L42.3965 45.7872C42.5462 44.9225 42.6658 44.3424 42.8943 43.4968Z" fill="var(--fill-0, #1A1919)" fill-opacity="0.027451"/>
</g>
</svg>
