<svg preserveAspectRatio="none" width="100%" height="100%" overflow="visible" style="display: block;" viewBox="0 0 226.363 258.766" fill="none" xmlns="http://www.w3.org/2000/svg">
<g id="Group 4">
<path id="Vector" d="M159.317 0.0889468C174.585 -0.585053 187.724 2.36094 196.632 16.1994C201.368 23.5569 203.552 33.9099 201.504 42.4729C199.247 51.9074 192.719 60.3669 184.201 65.0179C180.866 66.8469 177.766 67.8554 174.449 69.9179C174.529 70.0484 174.61 70.1789 174.69 70.3089L175.08 70.9679C175.955 72.4244 176.489 72.8769 176.378 74.5769C173.586 78.4029 167.126 76.0854 164.043 78.7604C161.6 80.8799 159.679 86.8694 154.474 84.3194C152.502 79.9034 158.725 74.1379 162.245 72.0724L162.893 71.6999C155.862 71.6599 152.942 71.8249 146.262 69.1969C147.035 71.8059 149.38 79.8009 149.58 82.2904C150.723 96.5184 149.266 114.713 144.087 128.117C141.582 134.6 137.418 143.49 130.815 146.188C124.764 148.661 120.006 144.909 114.332 142.565C103.438 143.77 98.1462 152.092 104.388 161.903C109.785 170.385 124.032 163.945 129.042 162.58C131.902 161.801 148.365 175.262 149.476 179.011C154.077 186.862 148.277 188.873 141.434 191.543C136.64 193.575 125.123 201.326 122.966 205.93C121.717 208.6 120.994 214.401 119.317 217.946C118.063 218.834 118.768 218.586 117.07 218.504C113.582 215.296 117.286 207.441 116.786 202.689C114.873 202.455 109.671 204.545 107.125 204.88C92.0342 206.867 80.1957 204.353 66.9047 197.656C70.3282 202.062 72.7862 207.138 74.1202 212.556C76.7597 223.585 74.6967 233.188 68.8017 242.658L68.6647 243.018L69.0417 243.27C77.6827 237.021 81.5862 225.797 79.2867 215.322C78.5907 212.15 74.9822 207.062 75.7322 204.598C77.2017 204.672 79.1067 205.942 80.1802 206.925C90.3837 216.262 87.2937 235.407 78.3842 244.648C51.5967 272.431 1.72418 257.185 0.0461819 216.61C-0.512818 204.007 4.02168 191.71 12.6282 182.486C19.0437 175.558 27.5672 170.674 37.1382 170.359C22.5317 147.351 21.6942 111.351 31.2002 86.3309C38.9597 65.8734 54.5507 49.3504 74.5237 40.4174C89.1882 33.8769 105.188 31.6334 120.432 37.3994C120.949 15.5129 139.32 3.09945 159.317 0.0889468ZM185.325 55.4184C197.398 45.0144 196.998 28.2164 186.808 16.5289C183.945 13.2454 177.398 9.34594 172.888 8.88694C193.163 22.3249 193.558 37.1084 182.733 57.0049C183.705 57.0709 184.301 56.2349 185.325 55.4184ZM126.693 188.796C128.969 188.144 135.847 186.324 137.634 185.423C139.85 184.697 141.732 184.066 143.907 183.2C139.569 178.007 134.707 174.483 129.345 170.452C128.196 176.884 127.703 182.668 126.693 188.796Z" fill="var(--fill-0, #222021)"/>
<path id="Vector_2" d="M204.921 80.3008C211.621 80.4283 218.629 88.3083 220.635 94.3973C219.544 99.9313 217.762 102.249 215.659 107.412C222.178 119.118 225.525 129.889 226.274 143.375C228.008 174.619 204.047 194.66 174.339 195.848C174.41 200.498 171.526 222.377 167.721 224.059C162.703 219.198 170.65 207.23 162.115 197.38C159.615 195.627 154.484 192.736 155.349 189.238C158.819 187.102 169.035 190.18 175.459 188.82C184.38 187.453 189.716 186.693 197.764 182.356C226.783 166.723 222.988 131.274 208.132 106.843C204.186 100.355 198.862 94.0283 195.105 87.3353L194.71 86.6233C196.801 87.5378 198.411 88.2863 200.383 89.4488C203.676 91.3908 208.128 97.0543 211.87 96.8608C216.888 91.5998 205.199 88.3823 202.899 83.0848C203.18 81.2743 203.105 81.8423 204.921 80.3008Z" fill="var(--fill-0, #222021)"/>
<path id="Vector_3" d="M176.657 81.4969C180.152 81.1689 182.204 81.0718 185.142 83.4983C188.676 86.0593 190.548 94.1748 186.79 97.2568C182.185 101.034 177.098 94.0208 174.985 91.1853C174.811 90.4223 174.672 89.7273 174.523 88.9613C170.862 88.7283 170.459 95.7944 166.433 96.8704C164.939 95.9839 165.014 96.0829 164.164 94.5749C163.509 88.7844 171.994 83.3899 176.657 81.4969Z" fill="var(--fill-0, #222021)"/>
<path id="Vector_4" d="M196.351 131.201C201.252 132.205 200.525 136.527 205.958 136.878C208.458 137.039 211.176 137.363 211.979 139.901C211.427 141.838 211.256 141.881 209.665 143.253C209.22 143.309 208.774 143.358 208.328 143.401C201.735 144.01 189.116 138.557 196.351 131.201Z" fill="var(--fill-0, #222021)"/>
</g>
</svg>
