<svg preserveAspectRatio="none" width="100%" height="100%" overflow="visible" style="display: block;" viewBox="0 0 197.679 247.598" fill="none" xmlns="http://www.w3.org/2000/svg">
<g id="Group 5">
<path id="Vector" d="M67.5572 0.0359922C82.9129 -0.953223 85.9326 18.6805 87.7188 30.3116C94.8796 22.9017 125.745 11.925 132.91 23.9582C136.719 30.3556 127.812 48.1895 125.281 55.3984C134.58 53.0831 151.129 54.5738 159.755 58.8418C167.765 62.8047 160.592 71.6583 157.669 76.7121C158.277 77.6405 165.975 75.2892 167.633 75.3649C176.836 75.7838 191.21 76.779 196.088 86.0853C202.708 98.7216 186.724 104.81 183.612 114.864C182.023 120.01 188.695 126.983 190.938 131.21C194.654 137.785 195.483 140.767 193.657 148.183C187.553 154.742 183.661 152.318 177.709 156.086L174.241 158.288C174.349 164.066 175.887 172.054 174.269 177.451C172.771 183.641 163.127 181.077 160.925 182.74C153.744 188.158 157.152 201.834 146.351 206.297C135.529 210.768 137.824 193.284 132.722 191.128C124.632 191.556 126.538 203.842 112.049 203.359C109.289 202.04 109.349 201.142 107.119 199.988L106.778 200.438L107.139 202.501C107.515 203.629 105.825 209.124 106.338 210.941C106.81 212.601 106.314 212.927 105.088 213.493C98.2637 212.546 101.696 205.638 101.436 201.799C100.935 194.446 103.042 185.734 102.437 178.783L102.381 178.192L98.8484 176.183C103.458 174.011 111.324 172.532 113.711 168.852C120.667 158.124 113.466 153.27 102.861 155.406C100.122 155.957 96.1411 155.303 94.3949 153.315C84.1984 141.724 97.2505 129.159 104.692 120.907C93.3577 117.701 89.4809 107.784 89.4328 96.9594C86.4171 107.705 83.6618 100.996 77.5182 106.761C74.042 104.301 67.9501 102.399 63.7501 100.744C64.2031 93.4475 67.727 95.3606 73.7456 95.9201C73.1409 93.7571 72.2157 90.238 71.0983 88.4526C64.8351 78.4347 52.538 84.1865 43.8449 85.0776C39.995 85.4765 36.105 85.1681 32.3664 84.1673C7.10136 77.4126 -1.92932 41.5382 2.52935 18.94C3.59186 13.5534 7.37971 12.3912 12.1872 13.1397C25.1043 15.1514 25.8051 27.8225 37.5732 31.7409C46.5542 20.9909 52.3481 2.87508 67.5572 0.0359922ZM132.95 87.9271C128.533 87.0945 124.272 86.7769 119.838 86.1257C122.59 87.9499 129.742 88.4133 132.95 87.9271ZM144.861 78.1403C143.928 74.7153 142.057 73.4822 138.633 72.7545C141.625 74.8306 143.027 76.8143 144.861 78.1403ZM74.4545 8.83279L75.1353 9.29135C74.6267 6.70458 70.6586 5.41018 68.2925 5.57759L66.0922 6.28766L66.1723 6.56641C69.7984 6.95689 71.3931 6.85637 74.4545 8.83279ZM157.052 114.885C153.888 113.609 150.948 112.516 147.432 113.022C149.346 113.736 154.941 114.756 157.052 114.885ZM159.687 131.073C159.05 127.577 158.842 126.976 156.343 124.48C157.084 126.331 158.297 129.81 159.687 131.073ZM121.504 99.8289C120.607 98.0463 119.005 95.196 117.167 94.2977C118.292 96.2113 119.546 98.8766 121.504 99.8289Z" fill="var(--fill-0, #232021)"/>
<path id="Vector_2" d="M68.2924 5.57749C70.6585 5.41009 74.6266 6.70448 75.1352 9.29126L74.4544 8.8327C71.393 6.85627 69.7983 6.9568 66.1722 6.56632L66.0921 6.28757L68.2924 5.57749Z" fill="var(--fill-0, #232021)" fill-opacity="0.054902"/>
<path id="Vector_3" d="M119.838 86.1257C124.271 86.7769 128.532 87.0945 132.95 87.9271C129.742 88.4133 122.589 87.9499 119.838 86.1257Z" fill="var(--fill-0, #232021)" fill-opacity="0.145098"/>
<path id="Vector_4" d="M138.634 72.7546C142.058 73.4823 143.928 74.7154 144.861 78.1404C143.027 76.8144 141.625 74.8307 138.634 72.7546Z" fill="var(--fill-0, #232021)" fill-opacity="0.0862745"/>
<path id="Vector_5" d="M147.432 113.022C150.948 112.516 153.888 113.609 157.052 114.885C154.941 114.756 149.346 113.736 147.432 113.022Z" fill="var(--fill-0, #232021)" fill-opacity="0.466667"/>
<path id="Vector_6" d="M156.343 124.48C158.842 126.976 159.05 127.576 159.687 131.072C158.297 129.81 157.084 126.33 156.343 124.48Z" fill="var(--fill-0, #232021)" fill-opacity="0.109804"/>
<path id="Vector_7" d="M117.167 94.2978C119.005 95.1961 120.607 98.0464 121.504 99.829C119.545 98.8767 118.292 96.2114 117.167 94.2978Z" fill="var(--fill-0, #232021)" fill-opacity="0.215686"/>
<path id="Vector_8" d="M8.29017 127.173C9.09436 128.491 8.8857 131.529 8.53126 133.018C4.07219 151.762 2.44179 168.886 17.7766 183.318C32.9969 197.642 54.5646 199.509 73.6252 191.546C77.3057 190.007 86.8134 183.494 90.1935 184.685L90.5339 185.496C89.757 190.045 83.1289 194.326 79.7687 197.834C77.3698 200.327 75.2352 203.066 73.4049 206.005C70.4965 210.558 68.7176 214.718 67.9839 220.132C67.6835 222.349 67.9614 228.137 65.2473 228.199C60.5804 224.06 64.7691 207.632 63.7358 200.835C60.9801 201.221 58.2135 201.523 55.4393 201.741C24.0111 203.933 -3.01492 181.387 0.271512 148.999C1.17502 140.096 2.21711 134.037 8.29017 127.173Z" fill="var(--fill-0, #232021)"/>
<path id="Vector_9" d="M115.977 217.039C117.984 216.811 118.617 216.81 120.283 218.146C122.529 224.966 87.975 242.747 81.5792 244.994C75.0752 247.28 66.9372 249.186 60.3535 245.618C57.7147 244.188 54.6674 242.698 53.6513 239.803L54.0446 239.207L55.4944 239.175C53.1899 236.184 51.946 229.743 55.0774 227.345C57.0026 228.079 57.9133 232.069 58.8573 233.959C63.8414 243.936 78.8038 239.622 86.6174 235.777C96.9981 230.668 105.765 222.633 115.977 217.039Z" fill="var(--fill-0, #232021)"/>
<path id="Vector_10" d="M27.8901 96.1007C33.2816 95.9529 46.0897 98.6402 45.7184 104.888C45.2767 112.329 20.763 115.247 20.0721 122.618C21.0365 125.812 23.7611 126.61 26.341 128.81C27.5625 130.244 28.5049 131.686 29.5698 133.234C28.5866 133.209 27.6046 133.157 26.6246 133.075C21.2933 132.585 13.4192 127.976 14.7696 121.49C15.8886 116.115 23.1287 113.138 27.1644 110.359C28.1521 109.68 28.094 108.385 28.3319 107.306C28.5121 105.153 29.7416 103.805 31.0352 102.032C30.1665 100.384 27.5621 101.811 26.5101 98.7384C26.7103 97.3739 27.0251 97.1572 27.8901 96.1007Z" fill="var(--fill-0, #232021)"/>
<path id="Vector_11" d="M61.0509 108.84C65.9269 108.904 78.4435 114.251 76.8375 120.58C76.0325 123.74 73.8939 125.307 71.4152 127.027C65.1275 129.055 63.9096 126.53 63.4775 120.983C64.6878 118.074 66.3006 117.169 66.1464 115.086C64.0406 113.147 60.4878 114.384 59.2751 111.479C59.6103 110.083 60.0332 109.843 61.0509 108.84Z" fill="var(--fill-0, #232021)"/>
<path id="Vector_12" d="M41.0006 144.416C42.7756 144.337 43.0443 144.261 44.5149 145.136C46.3331 147.808 44.3283 150.409 42.2798 152.419C39.0738 155.563 35.7662 156.661 31.2959 156.516C29.1705 156.094 25.5216 154.811 26.2929 152.004C31.3884 146.732 33.7321 156.647 41.0006 144.416Z" fill="var(--fill-0, #232021)"/>
<path id="Vector_13" d="M37.073 86.2868C41.9586 87.0341 53.0831 91.8865 46.8174 97.6924C42.7011 97.9387 38.1836 94.452 34.8803 92.1772C35.608 89.5044 35.7926 88.7879 37.073 86.2868Z" fill="var(--fill-0, #232021)"/>
</g>
</svg>
